-: Cover :- 



    	http://desibbrg.org/images/06294343420381078623.jpg



-: Screens :-




    	http://desibbrg.org/images/91087472529582183302.jpg
    	http://desibbrg.org/images/53519257092636818018.jpg
    	http://desibbrg.org/images/97730893974381896774.jpg
    	http://desibbrg.org/images/88129764830248068258.jpg
    	http://desibbrg.org/images/80674989588435879525.jpg
    	http://desibbrg.org/images/09797044429273691081.jpg
    	http://desibbrg.org/images/88105638284273945677.jpg
    	http://desibbrg.org/images/66332921049358011085.jpg
    	http://desibbrg.org/images/22827858873608583311.jpg
    	http://desibbrg.org/images/08817438824460735444.jpg
    	http://desibbrg.org/images/80402982401543472265.jpg
    	http://desibbrg.org/images/99174678045828334568.jpg
    	http://desibbrg.org/images/54090566205207344284.jpg
    	http://desibbrg.org/images/61400950733603940085.jpg





-: Info :-  



General

Format                           : MP4 Video
File size                        : 738 MiB
Duration                         : 2h 14mn
Overall bit rate                 : 766 Kbps

Video
Format                           : AVC
Format/Info                      : Advanced Video Codec
Format profile                   : Main@L3.0
Format settings, CABAC           : Yes
Format settings, ReFrames        : 3 frames

Duration                         : 2h 14mn
Bit rate                         : 628 Kbps
Width                            : 640 pixels
Height                           : 480 pixels
Display aspect ratio             : 4:3
Frame rate mode                  : Constant
Frame rate                       : 29.970 fps
Color space                      : YUV
Chroma subsampling               : 4:2:0
Bit depth                        : 8 bits
Scan type                        : Progressive
Bits/(Pixel*Frame)               : 0.068
Stream size                      : 606 MiB (82%)

Audio
Format                           : AAC
Format/Info                      : Advanced Audio Codec
Format version                   : Version 4
Format profile                   : LC
Format settings, SBR             : No
Duration                         : 2h 14mn
Bit rate                         : 129 Kbps
Channel(s)                       : 2 channels
Channel positions                : Front: L R
Sampling rate                    : 44.1 KHz
Bit depth                        : 16 bits
Stream size                      : 124 MiB (17%)


 
http://www.imdb.com/title/tt0082071/


    Release Date
    24 Dec 1982

    Genre
    Drama,Romance

    Producer
    Pranlal Mehta

    Star Cast
    Shakti Kapoor
    Reena Roy.... Kalpana
    Raj Kiran
    Naseeruddin Shah.... Shivnath
    Shashi Kapoor.... Raman
    Reeta Bhaduri.... Meerabai
    Seema Deo.... Vidya
    Iftekhar
    Madhu Malini
    Roohi
    T P Jain
    Yunus Parvez
    Raj Rani.... as Raaj Rani
    Guddi Maruti
    Raja Duggal
    Baby Shabana
    Jay Shree T
    Nadeem

    Choreographers
    Vijay

    Ex. Co Producers
    Deepak Shirke


Music Director

    Ram Lakshman

Color
C
Language
Hindi
Director

    Babu
    Bapu
    Deepak Shivdasani

Singers

    Kishore Kumar
    Asha Bhosle
    Bheroze Chatterjee
    Lata Mangeshkar
    Vinod Sehgal

Lyricist

    Rawinder Rawal

Editor

    N Chandra

Cinematography

    Thomas Xavier
    Baba Azmi

Art

    Bijon Das Gupta

Dialogue

    Ved Rahi

Publicity Designers

    Studio Link

    Sound
    Kaushik



A young woman must try to keep a one-night stand that she had in college a secret from her husband who happens to be one of his best friends, and thowart a persistant blackmailer intent on collecting money from her to keep quite about it. 


